<svg xmlns="http://www.w3.org/2000/svg" xmlns:xlink="http://www.w3.org/1999/xlink" id="Layer_1" x="0px" y="0px" viewBox="0 0 1000 1000" style="enable-background:new 0 0 1000 1000;" xml:space="preserve"><style type="text/css">	.st0{fill:#019DF9;}	.st1{fill:#75FA91;}</style><path class="st0" d="M601.2,192.7v155.8c0,28.5,23.4,51.9,51.9,51.9h26v64.9c0,3.4,1.3,6.7,3.7,9.1c5,5.1,13.2,5.2,18.4,0.2 l76.1-74.2h135.5c28.6,0,51.9-23.4,51.9-51.9V192.7c0-28.5-23.4-51.9-51.9-51.9H653.2C624.6,140.8,601.2,164.1,601.2,192.7z  M627.2,192.7c0-14.6,11.4-26,26-26h259.6c14.6,0,26,11.4,26,26v155.8c0,14.6-11.4,26-26,26H771.9c-3.4,0-6.6,1.3-9,3.7l-57.8,56.4 v-47.1c0-7.2-5.8-13-13-13h-38.9c-14.6,0-26-11.4-26-26L627.2,192.7L627.2,192.7z"></path><path class="st1" d="M834.9,257.1c-7.2,0-13,5.8-13,13c0,7.2,5.8,13,13,13c7.2,0,13-5.8,13-13C847.9,262.9,842.1,257.1,834.9,257.1z  M783,257.1c-7.2,0-13,5.8-13,13c0,7.2,5.8,13,13,13c7.2,0,13-5.8,13-13C795.9,262.9,790.1,257.1,783,257.1z M731,257.1 c-7.2,0-13,5.8-13,13c0,7.2,5.8,13,13,13c7.2,0,13-5.8,13-13C744,262.9,738.2,257.1,731,257.1z M731,257.1c-7.2,0-13,5.8-13,13 c0,7.2,5.8,13,13,13c7.2,0,13-5.8,13-13C744,262.9,738.2,257.1,731,257.1z M783,257.1c-7.2,0-13,5.8-13,13c0,7.2,5.8,13,13,13 c7.2,0,13-5.8,13-13C795.9,262.9,790.1,257.1,783,257.1z M834.9,257.1c-7.2,0-13,5.8-13,13c0,7.2,5.8,13,13,13c7.2,0,13-5.8,13-13 C847.9,262.9,842.1,257.1,834.9,257.1z M834.9,257.1c-7.2,0-13,5.8-13,13c0,7.2,5.8,13,13,13c7.2,0,13-5.8,13-13 C847.9,262.9,842.1,257.1,834.9,257.1z M783,257.1c-7.2,0-13,5.8-13,13c0,7.2,5.8,13,13,13c7.2,0,13-5.8,13-13 C795.9,262.9,790.1,257.1,783,257.1z M731,257.1c-7.2,0-13,5.8-13,13c0,7.2,5.8,13,13,13c7.2,0,13-5.8,13-13 C744,262.9,738.2,257.1,731,257.1z M834.9,257.1c-7.2,0-13,5.8-13,13c0,7.2,5.8,13,13,13c7.2,0,13-5.8,13-13 C847.9,262.9,842.1,257.1,834.9,257.1z M783,257.1c-7.2,0-13,5.8-13,13c0,7.2,5.8,13,13,13c7.2,0,13-5.8,13-13 C795.9,262.9,790.1,257.1,783,257.1z M731,257.1c-7.2,0-13,5.8-13,13c0,7.2,5.8,13,13,13c7.2,0,13-5.8,13-13 C744,262.9,738.2,257.1,731,257.1z M834.9,257.1c-7.2,0-13,5.8-13,13c0,7.2,5.8,13,13,13c7.2,0,13-5.8,13-13 C847.9,262.9,842.1,257.1,834.9,257.1z M783,257.1c-7.2,0-13,5.8-13,13c0,7.2,5.8,13,13,13c7.2,0,13-5.8,13-13 C795.9,262.9,790.1,257.1,783,257.1z M731,257.1c-7.2,0-13,5.8-13,13c0,7.2,5.8,13,13,13c7.2,0,13-5.8,13-13 C744,262.9,738.2,257.1,731,257.1z M834.9,257.1c-7.2,0-13,5.8-13,13c0,7.2,5.8,13,13,13c7.2,0,13-5.8,13-13 C847.9,262.9,842.1,257.1,834.9,257.1z M783,257.1c-7.2,0-13,5.8-13,13c0,7.2,5.8,13,13,13c7.2,0,13-5.8,13-13 C795.9,262.9,790.1,257.1,783,257.1z M731,257.1c-7.2,0-13,5.8-13,13c0,7.2,5.8,13,13,13c7.2,0,13-5.8,13-13 C744,262.9,738.2,257.1,731,257.1z M731,257.1c-7.2,0-13,5.8-13,13c0,7.2,5.8,13,13,13c7.2,0,13-5.8,13-13 C744,262.9,738.2,257.1,731,257.1z M783,257.1c-7.2,0-13,5.8-13,13c0,7.2,5.8,13,13,13c7.2,0,13-5.8,13-13 C795.9,262.9,790.1,257.1,783,257.1z M834.9,257.1c-7.2,0-13,5.8-13,13c0,7.2,5.8,13,13,13c7.2,0,13-5.8,13-13 C847.9,262.9,842.1,257.1,834.9,257.1z M834.9,257.1c-7.2,0-13,5.8-13,13c0,7.2,5.8,13,13,13c7.2,0,13-5.8,13-13 C847.9,262.9,842.1,257.1,834.9,257.1z M783,257.1c-7.2,0-13,5.8-13,13c0,7.2,5.8,13,13,13c7.2,0,13-5.8,13-13 C795.9,262.9,790.1,257.1,783,257.1z M731,257.1c-7.2,0-13,5.8-13,13c0,7.2,5.8,13,13,13c7.2,0,13-5.8,13-13 C744,262.9,738.2,257.1,731,257.1z M834.9,257.1c-7.2,0-13,5.8-13,13c0,7.2,5.8,13,13,13c7.2,0,13-5.8,13-13 C847.9,262.9,842.1,257.1,834.9,257.1z M783,257.1c-7.2,0-13,5.8-13,13c0,7.2,5.8,13,13,13c7.2,0,13-5.8,13-13 C795.9,262.9,790.1,257.1,783,257.1z M731,257.1c-7.2,0-13,5.8-13,13c0,7.2,5.8,13,13,13c7.2,0,13-5.8,13-13 C744,262.9,738.2,257.1,731,257.1z"></path><g>	<path class="st0" d="M261.3,642.6c-28.1,0-50.8-22.7-50.8-50.8s22.7-50.8,50.8-50.8s50.8,22.7,50.8,50.8S289.4,642.6,261.3,642.6z   M718.5,625.7c0,28.1-22.7,50.8-50.8,50.8h-16.9V778c0,37.4-30.3,67.7-67.7,67.7H176.7c-37.4,0-67.7-30.3-67.7-67.7V676.5H92  c-28.1,0-50.8-22.7-50.8-50.8s22.7-50.8,50.8-50.8h16.9V473.3c0-37.4,30.3-67.7,67.7-67.7H346V304c0-18.7,15.2-33.9,33.9-33.9  s33.9,15.2,33.9,33.9v101.6H583c37.4,0,67.7,30.3,67.7,67.7v101.6h16.9C695.7,574.9,718.5,597.6,718.5,625.7z M616.9,473.3  c0-18.7-15.2-33.8-33.9-33.9H176.7c-18.7,0-33.8,15.2-33.9,33.9V778c0,18.7,15.2,33.8,33.9,33.9H583c18.7,0,33.8-15.2,33.9-33.9  L616.9,473.3L616.9,473.3z M498.4,541c-28.1,0-50.8,22.7-50.8,50.8s22.7,50.8,50.8,50.8s50.8-22.7,50.8-50.8S526.4,541,498.4,541z   M475.7,694.4c-61.8,23-129.9,23-191.7,0c-8.8-3.1-18.5,1.6-21.6,10.4c-3,8.7,1.4,18.2,10.1,21.4c69.2,25.8,145.4,25.8,214.7,0  c8.8-3.3,13.2-13,9.9-21.8C493.9,695.8,484.4,691.4,475.7,694.4L475.7,694.4z"></path></g></svg>